<mxfile host="65bd71144e" pages="3">
    <diagram id="Tsd9pIVosLBa-QS8J_Np" name="usecase">
        <mxGraphModel dx="443" dy="356" grid="1" gridSize="10" guides="1" tooltips="1" connect="1" arrows="1" fold="1" page="1" pageScale="1" pageWidth="827" pageHeight="1169" math="0" shadow="0">
            <root>
                <mxCell id="0"/>
                <mxCell id="1" parent="0"/>
                <mxCell id="Cza1G0CAEYb0JNjuOdJO-17" value="&lt;div align=&quot;left&quot;&gt;&lt;b&gt;従業員管理システム&lt;/b&gt;&lt;/div&gt;" style="rounded=0;whiteSpace=wrap;html=1;gradientColor=none;align=left;verticalAlign=top;" parent="1" vertex="1">
                    <mxGeometry x="160" y="80" width="540" height="680" as="geometry"/>
                </mxCell>
                <mxCell id="Cza1G0CAEYb0JNjuOdJO-14" value="&lt;div&gt;管理者機能（管理者権限が必要）&lt;/div&gt;" style="rounded=1;whiteSpace=wrap;html=1;align=center;verticalAlign=top;fillColor=#ffe6cc;strokeColor=#d79b00;" parent="1" vertex="1">
                    <mxGeometry x="240" y="380" width="390" height="320" as="geometry"/>
                </mxCell>
                <mxCell id="Cza1G0CAEYb0JNjuOdJO-18" style="edgeStyle=none;rounded=0;orthogonalLoop=1;jettySize=auto;html=1;endArrow=none;endFill=0;entryX=0;entryY=0.5;entryDx=0;entryDy=0;" parent="1" source="Cza1G0CAEYb0JNjuOdJO-1" target="Cza1G0CAEYb0JNjuOdJO-7" edge="1">
                    <mxGeometry relative="1" as="geometry"/>
                </mxCell>
                <mxCell id="Cza1G0CAEYb0JNjuOdJO-19" style="edgeStyle=none;rounded=0;orthogonalLoop=1;jettySize=auto;html=1;entryX=0;entryY=0.5;entryDx=0;entryDy=0;endArrow=none;endFill=0;" parent="1" source="Cza1G0CAEYb0JNjuOdJO-1" target="Cza1G0CAEYb0JNjuOdJO-8" edge="1">
                    <mxGeometry relative="1" as="geometry"/>
                </mxCell>
                <mxCell id="Cza1G0CAEYb0JNjuOdJO-1" value="従業員" style="shape=umlActor;verticalLabelPosition=bottom;verticalAlign=top;html=1;outlineConnect=0;" parent="1" vertex="1">
                    <mxGeometry x="80" y="160" width="30" height="60" as="geometry"/>
                </mxCell>
                <mxCell id="Cza1G0CAEYb0JNjuOdJO-3" style="edgeStyle=orthogonalEdgeStyle;rounded=0;orthogonalLoop=1;jettySize=auto;html=1;endArrow=block;endFill=0;" parent="1" source="Cza1G0CAEYb0JNjuOdJO-2" edge="1">
                    <mxGeometry relative="1" as="geometry">
                        <mxPoint x="95" y="240" as="targetPoint"/>
                    </mxGeometry>
                </mxCell>
                <mxCell id="Cza1G0CAEYb0JNjuOdJO-15" style="edgeStyle=none;rounded=0;orthogonalLoop=1;jettySize=auto;html=1;endArrow=none;endFill=0;" parent="1" source="Cza1G0CAEYb0JNjuOdJO-2" target="Cza1G0CAEYb0JNjuOdJO-14" edge="1">
                    <mxGeometry relative="1" as="geometry"/>
                </mxCell>
                <mxCell id="Cza1G0CAEYb0JNjuOdJO-2" value="管理者" style="shape=umlActor;verticalLabelPosition=bottom;verticalAlign=top;html=1;outlineConnect=0;" parent="1" vertex="1">
                    <mxGeometry x="80" y="510" width="30" height="60" as="geometry"/>
                </mxCell>
                <mxCell id="Cza1G0CAEYb0JNjuOdJO-4" value="従業員を新規で登録する" style="ellipse;whiteSpace=wrap;html=1;" parent="1" vertex="1">
                    <mxGeometry x="280" y="410" width="310" height="60" as="geometry"/>
                </mxCell>
                <mxCell id="Cza1G0CAEYb0JNjuOdJO-5" value="従業員を更新・削除する" style="ellipse;whiteSpace=wrap;html=1;" parent="1" vertex="1">
                    <mxGeometry x="280" y="470" width="310" height="60" as="geometry"/>
                </mxCell>
                <mxCell id="Cza1G0CAEYb0JNjuOdJO-6" value="グループを登録・更新・削除する" style="ellipse;whiteSpace=wrap;html=1;" parent="1" vertex="1">
                    <mxGeometry x="280" y="550" width="310" height="60" as="geometry"/>
                </mxCell>
                <mxCell id="Cza1G0CAEYb0JNjuOdJO-7" value="自分の情報を更新する" style="ellipse;whiteSpace=wrap;html=1;" parent="1" vertex="1">
                    <mxGeometry x="280" y="130" width="310" height="60" as="geometry"/>
                </mxCell>
                <mxCell id="Cza1G0CAEYb0JNjuOdJO-16" style="edgeStyle=none;rounded=0;orthogonalLoop=1;jettySize=auto;html=1;exitX=0.5;exitY=1;exitDx=0;exitDy=0;entryX=0.5;entryY=0;entryDx=0;entryDy=0;endArrow=classic;endFill=1;" parent="1" source="Cza1G0CAEYb0JNjuOdJO-8" target="Cza1G0CAEYb0JNjuOdJO-9" edge="1">
                    <mxGeometry relative="1" as="geometry"/>
                </mxCell>
                <mxCell id="Cza1G0CAEYb0JNjuOdJO-8" value="全従業員の一覧を参照する" style="ellipse;whiteSpace=wrap;html=1;" parent="1" vertex="1">
                    <mxGeometry x="280" y="210" width="310" height="60" as="geometry"/>
                </mxCell>
                <mxCell id="Cza1G0CAEYb0JNjuOdJO-9" value="従業員の詳細情報を参照する" style="ellipse;whiteSpace=wrap;html=1;" parent="1" vertex="1">
                    <mxGeometry x="280" y="290" width="310" height="60" as="geometry"/>
                </mxCell>
                <mxCell id="Cza1G0CAEYb0JNjuOdJO-10" value="従業員にグループを設定する" style="ellipse;whiteSpace=wrap;html=1;" parent="1" vertex="1">
                    <mxGeometry x="280" y="615" width="310" height="60" as="geometry"/>
                </mxCell>
                <mxCell id="Cza1G0CAEYb0JNjuOdJO-11" value="&lt;div&gt;従業員は複数のグループに&lt;/div&gt;&lt;div&gt;所属できること&lt;/div&gt;" style="shape=callout;whiteSpace=wrap;html=1;perimeter=calloutPerimeter;gradientColor=none;size=30;position=0.25;position2=0;fontStyle=1" parent="1" vertex="1">
                    <mxGeometry x="600" y="530" width="200" height="110" as="geometry"/>
                </mxCell>
                <mxCell id="Cza1G0CAEYb0JNjuOdJO-13" style="rounded=0;orthogonalLoop=1;jettySize=auto;html=1;entryX=1.003;entryY=0.367;entryDx=0;entryDy=0;entryPerimeter=0;endArrow=open;endFill=0;" parent="1" source="Cza1G0CAEYb0JNjuOdJO-12" target="Cza1G0CAEYb0JNjuOdJO-8" edge="1">
                    <mxGeometry relative="1" as="geometry"/>
                </mxCell>
                <mxCell id="Cza1G0CAEYb0JNjuOdJO-12" value="グループでフィルタリング可能" style="ellipse;whiteSpace=wrap;html=1;gradientColor=none;" parent="1" vertex="1">
                    <mxGeometry x="610" y="180" width="200" height="50" as="geometry"/>
                </mxCell>
                <mxCell id="Cza1G0CAEYb0JNjuOdJO-20" value="ログイン機能" style="ellipse;whiteSpace=wrap;html=1;gradientColor=none;" parent="1" vertex="1">
                    <mxGeometry x="610" y="90" width="200" height="50" as="geometry"/>
                </mxCell>
            </root>
        </mxGraphModel>
    </diagram>
    <diagram id="9a3Nyi0VZzm9w4IwcKrD" name="ER">
        <mxGraphModel dx="443" dy="356" grid="1" gridSize="10" guides="1" tooltips="1" connect="1" arrows="1" fold="1" page="1" pageScale="1" pageWidth="827" pageHeight="1169" math="0" shadow="0">
            <root>
                <mxCell id="YOPI8dQJbsrnWy-lnaqU-0"/>
                <mxCell id="YOPI8dQJbsrnWy-lnaqU-1" parent="YOPI8dQJbsrnWy-lnaqU-0"/>
                <mxCell id="YOPI8dQJbsrnWy-lnaqU-2" value="Employees" style="shape=table;startSize=30;container=1;collapsible=1;childLayout=tableLayout;fixedRows=1;rowLines=0;fontStyle=1;align=center;resizeLast=1;" parent="YOPI8dQJbsrnWy-lnaqU-1" vertex="1">
                    <mxGeometry x="80" y="120" width="180" height="310" as="geometry"/>
                </mxCell>
                <mxCell id="YOPI8dQJbsrnWy-lnaqU-3" value="" style="shape=partialRectangle;collapsible=0;dropTarget=0;pointerEvents=0;fillColor=none;top=0;left=0;bottom=1;right=0;points=[[0,0.5],[1,0.5]];portConstraint=eastwest;" parent="YOPI8dQJbsrnWy-lnaqU-2" vertex="1">
                    <mxGeometry y="30" width="180" height="30" as="geometry"/>
                </mxCell>
                <mxCell id="YOPI8dQJbsrnWy-lnaqU-4" value="PK" style="shape=partialRectangle;connectable=0;fillColor=none;top=0;left=0;bottom=0;right=0;fontStyle=1;overflow=hidden;" parent="YOPI8dQJbsrnWy-lnaqU-3" vertex="1">
                    <mxGeometry width="30" height="30" as="geometry"/>
                </mxCell>
                <mxCell id="YOPI8dQJbsrnWy-lnaqU-5" value="id" style="shape=partialRectangle;connectable=0;fillColor=none;top=0;left=0;bottom=0;right=0;align=left;spacingLeft=6;fontStyle=5;overflow=hidden;" parent="YOPI8dQJbsrnWy-lnaqU-3" vertex="1">
                    <mxGeometry x="30" width="150" height="30" as="geometry"/>
                </mxCell>
                <mxCell id="YOPI8dQJbsrnWy-lnaqU-6" value="" style="shape=partialRectangle;collapsible=0;dropTarget=0;pointerEvents=0;fillColor=none;top=0;left=0;bottom=0;right=0;points=[[0,0.5],[1,0.5]];portConstraint=eastwest;" parent="YOPI8dQJbsrnWy-lnaqU-2" vertex="1">
                    <mxGeometry y="60" width="180" height="30" as="geometry"/>
                </mxCell>
                <mxCell id="YOPI8dQJbsrnWy-lnaqU-7" value="" style="shape=partialRectangle;connectable=0;fillColor=none;top=0;left=0;bottom=0;right=0;editable=1;overflow=hidden;" parent="YOPI8dQJbsrnWy-lnaqU-6" vertex="1">
                    <mxGeometry width="30" height="30" as="geometry"/>
                </mxCell>
                <mxCell id="YOPI8dQJbsrnWy-lnaqU-8" value="name" style="shape=partialRectangle;connectable=0;fillColor=none;top=0;left=0;bottom=0;right=0;align=left;spacingLeft=6;overflow=hidden;" parent="YOPI8dQJbsrnWy-lnaqU-6" vertex="1">
                    <mxGeometry x="30" width="150" height="30" as="geometry"/>
                </mxCell>
                <mxCell id="YOPI8dQJbsrnWy-lnaqU-9" value="" style="shape=partialRectangle;collapsible=0;dropTarget=0;pointerEvents=0;fillColor=none;top=0;left=0;bottom=0;right=0;points=[[0,0.5],[1,0.5]];portConstraint=eastwest;" parent="YOPI8dQJbsrnWy-lnaqU-2" vertex="1">
                    <mxGeometry y="90" width="180" height="30" as="geometry"/>
                </mxCell>
                <mxCell id="YOPI8dQJbsrnWy-lnaqU-10" value="" style="shape=partialRectangle;connectable=0;fillColor=none;top=0;left=0;bottom=0;right=0;editable=1;overflow=hidden;" parent="YOPI8dQJbsrnWy-lnaqU-9" vertex="1">
                    <mxGeometry width="30" height="30" as="geometry"/>
                </mxCell>
                <mxCell id="YOPI8dQJbsrnWy-lnaqU-11" value="kana" style="shape=partialRectangle;connectable=0;fillColor=none;top=0;left=0;bottom=0;right=0;align=left;spacingLeft=6;overflow=hidden;" parent="YOPI8dQJbsrnWy-lnaqU-9" vertex="1">
                    <mxGeometry x="30" width="150" height="30" as="geometry"/>
                </mxCell>
                <mxCell id="YOPI8dQJbsrnWy-lnaqU-27" style="shape=partialRectangle;collapsible=0;dropTarget=0;pointerEvents=0;fillColor=none;top=0;left=0;bottom=0;right=0;points=[[0,0.5],[1,0.5]];portConstraint=eastwest;" parent="YOPI8dQJbsrnWy-lnaqU-2" vertex="1">
                    <mxGeometry y="120" width="180" height="30" as="geometry"/>
                </mxCell>
                <mxCell id="YOPI8dQJbsrnWy-lnaqU-28" style="shape=partialRectangle;connectable=0;fillColor=none;top=0;left=0;bottom=0;right=0;editable=1;overflow=hidden;" parent="YOPI8dQJbsrnWy-lnaqU-27" vertex="1">
                    <mxGeometry width="30" height="30" as="geometry"/>
                </mxCell>
                <mxCell id="YOPI8dQJbsrnWy-lnaqU-29" value="login_id" style="shape=partialRectangle;connectable=0;fillColor=none;top=0;left=0;bottom=0;right=0;align=left;spacingLeft=6;overflow=hidden;" parent="YOPI8dQJbsrnWy-lnaqU-27" vertex="1">
                    <mxGeometry x="30" width="150" height="30" as="geometry"/>
                </mxCell>
                <mxCell id="YOPI8dQJbsrnWy-lnaqU-12" value="" style="shape=partialRectangle;collapsible=0;dropTarget=0;pointerEvents=0;fillColor=none;top=0;left=0;bottom=0;right=0;points=[[0,0.5],[1,0.5]];portConstraint=eastwest;" parent="YOPI8dQJbsrnWy-lnaqU-2" vertex="1">
                    <mxGeometry y="150" width="180" height="30" as="geometry"/>
                </mxCell>
                <mxCell id="YOPI8dQJbsrnWy-lnaqU-13" value="" style="shape=partialRectangle;connectable=0;fillColor=none;top=0;left=0;bottom=0;right=0;editable=1;overflow=hidden;" parent="YOPI8dQJbsrnWy-lnaqU-12" vertex="1">
                    <mxGeometry width="30" height="30" as="geometry"/>
                </mxCell>
                <mxCell id="YOPI8dQJbsrnWy-lnaqU-14" value="email" style="shape=partialRectangle;connectable=0;fillColor=none;top=0;left=0;bottom=0;right=0;align=left;spacingLeft=6;overflow=hidden;" parent="YOPI8dQJbsrnWy-lnaqU-12" vertex="1">
                    <mxGeometry x="30" width="150" height="30" as="geometry"/>
                </mxCell>
                <mxCell id="YOPI8dQJbsrnWy-lnaqU-15" style="shape=partialRectangle;collapsible=0;dropTarget=0;pointerEvents=0;fillColor=none;top=0;left=0;bottom=0;right=0;points=[[0,0.5],[1,0.5]];portConstraint=eastwest;" parent="YOPI8dQJbsrnWy-lnaqU-2" vertex="1">
                    <mxGeometry y="180" width="180" height="30" as="geometry"/>
                </mxCell>
                <mxCell id="YOPI8dQJbsrnWy-lnaqU-16" style="shape=partialRectangle;connectable=0;fillColor=none;top=0;left=0;bottom=0;right=0;editable=1;overflow=hidden;" parent="YOPI8dQJbsrnWy-lnaqU-15" vertex="1">
                    <mxGeometry width="30" height="30" as="geometry"/>
                </mxCell>
                <mxCell id="YOPI8dQJbsrnWy-lnaqU-17" value="password" style="shape=partialRectangle;connectable=0;fillColor=none;top=0;left=0;bottom=0;right=0;align=left;spacingLeft=6;overflow=hidden;" parent="YOPI8dQJbsrnWy-lnaqU-15" vertex="1">
                    <mxGeometry x="30" width="150" height="30" as="geometry"/>
                </mxCell>
                <mxCell id="YOPI8dQJbsrnWy-lnaqU-18" style="shape=partialRectangle;collapsible=0;dropTarget=0;pointerEvents=0;fillColor=none;top=0;left=0;bottom=0;right=0;points=[[0,0.5],[1,0.5]];portConstraint=eastwest;" parent="YOPI8dQJbsrnWy-lnaqU-2" vertex="1">
                    <mxGeometry y="210" width="180" height="30" as="geometry"/>
                </mxCell>
                <mxCell id="YOPI8dQJbsrnWy-lnaqU-19" value="FK" style="shape=partialRectangle;connectable=0;fillColor=none;top=0;left=0;bottom=0;right=0;editable=1;overflow=hidden;" parent="YOPI8dQJbsrnWy-lnaqU-18" vertex="1">
                    <mxGeometry width="30" height="30" as="geometry"/>
                </mxCell>
                <mxCell id="YOPI8dQJbsrnWy-lnaqU-20" value="main_group_id" style="shape=partialRectangle;connectable=0;fillColor=none;top=0;left=0;bottom=0;right=0;align=left;spacingLeft=6;overflow=hidden;" parent="YOPI8dQJbsrnWy-lnaqU-18" vertex="1">
                    <mxGeometry x="30" width="150" height="30" as="geometry"/>
                </mxCell>
                <mxCell id="YOPI8dQJbsrnWy-lnaqU-21" style="shape=partialRectangle;collapsible=0;dropTarget=0;pointerEvents=0;fillColor=none;top=0;left=0;bottom=0;right=0;points=[[0,0.5],[1,0.5]];portConstraint=eastwest;" parent="YOPI8dQJbsrnWy-lnaqU-2" vertex="1">
                    <mxGeometry y="240" width="180" height="30" as="geometry"/>
                </mxCell>
                <mxCell id="YOPI8dQJbsrnWy-lnaqU-22" style="shape=partialRectangle;connectable=0;fillColor=none;top=0;left=0;bottom=0;right=0;editable=1;overflow=hidden;" parent="YOPI8dQJbsrnWy-lnaqU-21" vertex="1">
                    <mxGeometry width="30" height="30" as="geometry"/>
                </mxCell>
                <mxCell id="YOPI8dQJbsrnWy-lnaqU-23" value="admin" style="shape=partialRectangle;connectable=0;fillColor=none;top=0;left=0;bottom=0;right=0;align=left;spacingLeft=6;overflow=hidden;" parent="YOPI8dQJbsrnWy-lnaqU-21" vertex="1">
                    <mxGeometry x="30" width="150" height="30" as="geometry"/>
                </mxCell>
                <mxCell id="YOPI8dQJbsrnWy-lnaqU-24" style="shape=partialRectangle;collapsible=0;dropTarget=0;pointerEvents=0;fillColor=none;top=0;left=0;bottom=0;right=0;points=[[0,0.5],[1,0.5]];portConstraint=eastwest;" parent="YOPI8dQJbsrnWy-lnaqU-2" vertex="1">
                    <mxGeometry y="270" width="180" height="30" as="geometry"/>
                </mxCell>
                <mxCell id="YOPI8dQJbsrnWy-lnaqU-25" style="shape=partialRectangle;connectable=0;fillColor=none;top=0;left=0;bottom=0;right=0;editable=1;overflow=hidden;" parent="YOPI8dQJbsrnWy-lnaqU-24" vertex="1">
                    <mxGeometry width="30" height="30" as="geometry"/>
                </mxCell>
                <mxCell id="YOPI8dQJbsrnWy-lnaqU-26" style="shape=partialRectangle;connectable=0;fillColor=none;top=0;left=0;bottom=0;right=0;align=left;spacingLeft=6;overflow=hidden;" parent="YOPI8dQJbsrnWy-lnaqU-24" vertex="1">
                    <mxGeometry x="30" width="150" height="30" as="geometry"/>
                </mxCell>
                <mxCell id="YOPI8dQJbsrnWy-lnaqU-30" value="Groups" style="shape=table;startSize=30;container=1;collapsible=1;childLayout=tableLayout;fixedRows=1;rowLines=0;fontStyle=1;align=center;resizeLast=1;" parent="YOPI8dQJbsrnWy-lnaqU-1" vertex="1">
                    <mxGeometry x="600" y="150" width="180" height="130" as="geometry"/>
                </mxCell>
                <mxCell id="YOPI8dQJbsrnWy-lnaqU-31" value="" style="shape=partialRectangle;collapsible=0;dropTarget=0;pointerEvents=0;fillColor=none;top=0;left=0;bottom=1;right=0;points=[[0,0.5],[1,0.5]];portConstraint=eastwest;" parent="YOPI8dQJbsrnWy-lnaqU-30" vertex="1">
                    <mxGeometry y="30" width="180" height="30" as="geometry"/>
                </mxCell>
                <mxCell id="YOPI8dQJbsrnWy-lnaqU-32" value="PK" style="shape=partialRectangle;connectable=0;fillColor=none;top=0;left=0;bottom=0;right=0;fontStyle=1;overflow=hidden;" parent="YOPI8dQJbsrnWy-lnaqU-31" vertex="1">
                    <mxGeometry width="30" height="30" as="geometry"/>
                </mxCell>
                <mxCell id="YOPI8dQJbsrnWy-lnaqU-33" value="id" style="shape=partialRectangle;connectable=0;fillColor=none;top=0;left=0;bottom=0;right=0;align=left;spacingLeft=6;fontStyle=5;overflow=hidden;" parent="YOPI8dQJbsrnWy-lnaqU-31" vertex="1">
                    <mxGeometry x="30" width="150" height="30" as="geometry"/>
                </mxCell>
                <mxCell id="YOPI8dQJbsrnWy-lnaqU-34" value="" style="shape=partialRectangle;collapsible=0;dropTarget=0;pointerEvents=0;fillColor=none;top=0;left=0;bottom=0;right=0;points=[[0,0.5],[1,0.5]];portConstraint=eastwest;" parent="YOPI8dQJbsrnWy-lnaqU-30" vertex="1">
                    <mxGeometry y="60" width="180" height="30" as="geometry"/>
                </mxCell>
                <mxCell id="YOPI8dQJbsrnWy-lnaqU-35" value="" style="shape=partialRectangle;connectable=0;fillColor=none;top=0;left=0;bottom=0;right=0;editable=1;overflow=hidden;" parent="YOPI8dQJbsrnWy-lnaqU-34" vertex="1">
                    <mxGeometry width="30" height="30" as="geometry"/>
                </mxCell>
                <mxCell id="YOPI8dQJbsrnWy-lnaqU-36" value="name" style="shape=partialRectangle;connectable=0;fillColor=none;top=0;left=0;bottom=0;right=0;align=left;spacingLeft=6;overflow=hidden;" parent="YOPI8dQJbsrnWy-lnaqU-34" vertex="1">
                    <mxGeometry x="30" width="150" height="30" as="geometry"/>
                </mxCell>
                <mxCell id="YOPI8dQJbsrnWy-lnaqU-37" value="" style="shape=partialRectangle;collapsible=0;dropTarget=0;pointerEvents=0;fillColor=none;top=0;left=0;bottom=0;right=0;points=[[0,0.5],[1,0.5]];portConstraint=eastwest;" parent="YOPI8dQJbsrnWy-lnaqU-30" vertex="1">
                    <mxGeometry y="90" width="180" height="30" as="geometry"/>
                </mxCell>
                <mxCell id="YOPI8dQJbsrnWy-lnaqU-38" value="" style="shape=partialRectangle;connectable=0;fillColor=none;top=0;left=0;bottom=0;right=0;editable=1;overflow=hidden;" parent="YOPI8dQJbsrnWy-lnaqU-37" vertex="1">
                    <mxGeometry width="30" height="30" as="geometry"/>
                </mxCell>
                <mxCell id="YOPI8dQJbsrnWy-lnaqU-39" value="sort_order" style="shape=partialRectangle;connectable=0;fillColor=none;top=0;left=0;bottom=0;right=0;align=left;spacingLeft=6;overflow=hidden;" parent="YOPI8dQJbsrnWy-lnaqU-37" vertex="1">
                    <mxGeometry x="30" width="150" height="30" as="geometry"/>
                </mxCell>
                <mxCell id="YOPI8dQJbsrnWy-lnaqU-43" value="Employees_Groups" style="shape=table;startSize=30;container=1;collapsible=1;childLayout=tableLayout;fixedRows=1;rowLines=0;fontStyle=1;align=center;resizeLast=1;" parent="YOPI8dQJbsrnWy-lnaqU-1" vertex="1">
                    <mxGeometry x="340" y="120" width="180" height="130" as="geometry"/>
                </mxCell>
                <mxCell id="YOPI8dQJbsrnWy-lnaqU-44" value="" style="shape=partialRectangle;collapsible=0;dropTarget=0;pointerEvents=0;fillColor=none;top=0;left=0;bottom=0;right=0;points=[[0,0.5],[1,0.5]];portConstraint=eastwest;" parent="YOPI8dQJbsrnWy-lnaqU-43" vertex="1">
                    <mxGeometry y="30" width="180" height="30" as="geometry"/>
                </mxCell>
                <mxCell id="YOPI8dQJbsrnWy-lnaqU-45" value="PK,FK1" style="shape=partialRectangle;connectable=0;fillColor=none;top=0;left=0;bottom=0;right=0;fontStyle=1;overflow=hidden;" parent="YOPI8dQJbsrnWy-lnaqU-44" vertex="1">
                    <mxGeometry width="60" height="30" as="geometry"/>
                </mxCell>
                <mxCell id="YOPI8dQJbsrnWy-lnaqU-46" value="employees_id" style="shape=partialRectangle;connectable=0;fillColor=none;top=0;left=0;bottom=0;right=0;align=left;spacingLeft=6;fontStyle=5;overflow=hidden;" parent="YOPI8dQJbsrnWy-lnaqU-44" vertex="1">
                    <mxGeometry x="60" width="120" height="30" as="geometry"/>
                </mxCell>
                <mxCell id="YOPI8dQJbsrnWy-lnaqU-47" value="" style="shape=partialRectangle;collapsible=0;dropTarget=0;pointerEvents=0;fillColor=none;top=0;left=0;bottom=1;right=0;points=[[0,0.5],[1,0.5]];portConstraint=eastwest;" parent="YOPI8dQJbsrnWy-lnaqU-43" vertex="1">
                    <mxGeometry y="60" width="180" height="30" as="geometry"/>
                </mxCell>
                <mxCell id="YOPI8dQJbsrnWy-lnaqU-48" value="PK,FK2" style="shape=partialRectangle;connectable=0;fillColor=none;top=0;left=0;bottom=0;right=0;fontStyle=1;overflow=hidden;" parent="YOPI8dQJbsrnWy-lnaqU-47" vertex="1">
                    <mxGeometry width="60" height="30" as="geometry"/>
                </mxCell>
                <mxCell id="YOPI8dQJbsrnWy-lnaqU-49" value="groups_id" style="shape=partialRectangle;connectable=0;fillColor=none;top=0;left=0;bottom=0;right=0;align=left;spacingLeft=6;fontStyle=5;overflow=hidden;" parent="YOPI8dQJbsrnWy-lnaqU-47" vertex="1">
                    <mxGeometry x="60" width="120" height="30" as="geometry"/>
                </mxCell>
                <mxCell id="YOPI8dQJbsrnWy-lnaqU-50" value="" style="shape=partialRectangle;collapsible=0;dropTarget=0;pointerEvents=0;fillColor=none;top=0;left=0;bottom=0;right=0;points=[[0,0.5],[1,0.5]];portConstraint=eastwest;" parent="YOPI8dQJbsrnWy-lnaqU-43" vertex="1">
                    <mxGeometry y="90" width="180" height="30" as="geometry"/>
                </mxCell>
                <mxCell id="YOPI8dQJbsrnWy-lnaqU-51" value="" style="shape=partialRectangle;connectable=0;fillColor=none;top=0;left=0;bottom=0;right=0;editable=1;overflow=hidden;" parent="YOPI8dQJbsrnWy-lnaqU-50" vertex="1">
                    <mxGeometry width="60" height="30" as="geometry"/>
                </mxCell>
                <mxCell id="YOPI8dQJbsrnWy-lnaqU-52" value="" style="shape=partialRectangle;connectable=0;fillColor=none;top=0;left=0;bottom=0;right=0;align=left;spacingLeft=6;overflow=hidden;" parent="YOPI8dQJbsrnWy-lnaqU-50" vertex="1">
                    <mxGeometry x="60" width="120" height="30" as="geometry"/>
                </mxCell>
                <mxCell id="YOPI8dQJbsrnWy-lnaqU-56" style="edgeStyle=orthogonalEdgeStyle;rounded=0;orthogonalLoop=1;jettySize=auto;html=1;exitX=1;exitY=0.5;exitDx=0;exitDy=0;entryX=0;entryY=0.5;entryDx=0;entryDy=0;endArrow=none;endFill=0;startArrow=ERmany;startFill=0;" parent="YOPI8dQJbsrnWy-lnaqU-1" source="YOPI8dQJbsrnWy-lnaqU-3" target="YOPI8dQJbsrnWy-lnaqU-44" edge="1">
                    <mxGeometry relative="1" as="geometry"/>
                </mxCell>
                <mxCell id="YOPI8dQJbsrnWy-lnaqU-57" style="edgeStyle=orthogonalEdgeStyle;rounded=0;orthogonalLoop=1;jettySize=auto;html=1;exitX=0;exitY=0.5;exitDx=0;exitDy=0;entryX=1;entryY=0.5;entryDx=0;entryDy=0;startArrow=ERmany;startFill=0;endArrow=none;endFill=0;" parent="YOPI8dQJbsrnWy-lnaqU-1" source="YOPI8dQJbsrnWy-lnaqU-31" target="YOPI8dQJbsrnWy-lnaqU-47" edge="1">
                    <mxGeometry relative="1" as="geometry"/>
                </mxCell>
                <mxCell id="YOPI8dQJbsrnWy-lnaqU-58" style="edgeStyle=orthogonalEdgeStyle;rounded=0;orthogonalLoop=1;jettySize=auto;html=1;exitX=1;exitY=0.5;exitDx=0;exitDy=0;entryX=0.5;entryY=1;entryDx=0;entryDy=0;startArrow=ERmany;startFill=0;endArrow=none;endFill=0;" parent="YOPI8dQJbsrnWy-lnaqU-1" source="YOPI8dQJbsrnWy-lnaqU-18" target="YOPI8dQJbsrnWy-lnaqU-30" edge="1">
                    <mxGeometry relative="1" as="geometry"/>
                </mxCell>
                <mxCell id="YOPI8dQJbsrnWy-lnaqU-59" value="@ManyToMany" style="shape=callout;whiteSpace=wrap;html=1;perimeter=calloutPerimeter;" parent="YOPI8dQJbsrnWy-lnaqU-1" vertex="1">
                    <mxGeometry x="470" y="40" width="120" height="80" as="geometry"/>
                </mxCell>
                <mxCell id="Pm8DbJrOlG5AEd7UYcN8-0" value="&lt;div&gt;@ManyToOne&lt;/div&gt;" style="shape=callout;whiteSpace=wrap;html=1;perimeter=calloutPerimeter;rotation=0;position2=0.58;size=30;position=0.58;" parent="YOPI8dQJbsrnWy-lnaqU-1" vertex="1">
                    <mxGeometry x="280" y="260" width="120" height="80" as="geometry"/>
                </mxCell>
            </root>
        </mxGraphModel>
    </diagram>
    <diagram id="ZVF522IHPxa1fmMpTUgu" name="URL">
        <mxGraphModel dx="443" dy="356" grid="1" gridSize="10" guides="1" tooltips="1" connect="1" arrows="1" fold="1" page="1" pageScale="1" pageWidth="827" pageHeight="1169" math="0" shadow="0">
            <root>
                <mxCell id="mRZKiHWd1esKcMcwsu57-0"/>
                <mxCell id="mRZKiHWd1esKcMcwsu57-1" parent="mRZKiHWd1esKcMcwsu57-0"/>
                <mxCell id="mRZKiHWd1esKcMcwsu57-3" value="" style="shape=table;startSize=0;container=1;collapsible=0;childLayout=tableLayout;" parent="mRZKiHWd1esKcMcwsu57-1" vertex="1">
                    <mxGeometry x="80" y="80" width="600" height="800" as="geometry"/>
                </mxCell>
                <mxCell id="mRZKiHWd1esKcMcwsu57-4" value="" style="shape=partialRectangle;collapsible=0;dropTarget=0;pointerEvents=0;fillColor=none;top=0;left=0;bottom=0;right=0;points=[[0,0.5],[1,0.5]];portConstraint=eastwest;" parent="mRZKiHWd1esKcMcwsu57-3" vertex="1">
                    <mxGeometry width="600" height="40" as="geometry"/>
                </mxCell>
                <mxCell id="mRZKiHWd1esKcMcwsu57-5" value="METHOD" style="shape=partialRectangle;html=1;whiteSpace=wrap;connectable=0;overflow=hidden;fillColor=#dae8fc;top=0;left=0;bottom=0;right=0;gradientColor=#7ea6e0;strokeColor=#6c8ebf;" parent="mRZKiHWd1esKcMcwsu57-4" vertex="1">
                    <mxGeometry width="80" height="40" as="geometry"/>
                </mxCell>
                <mxCell id="mRZKiHWd1esKcMcwsu57-6" value="URL" style="shape=partialRectangle;html=1;whiteSpace=wrap;connectable=0;overflow=hidden;fillColor=#dae8fc;top=0;left=0;bottom=0;right=0;gradientColor=#7ea6e0;strokeColor=#6c8ebf;" parent="mRZKiHWd1esKcMcwsu57-4" vertex="1">
                    <mxGeometry x="80" width="160" height="40" as="geometry"/>
                </mxCell>
                <mxCell id="mRZKiHWd1esKcMcwsu57-7" value="description" style="shape=partialRectangle;html=1;whiteSpace=wrap;connectable=0;overflow=hidden;fillColor=#dae8fc;top=0;left=0;bottom=0;right=0;gradientColor=#7ea6e0;strokeColor=#6c8ebf;" parent="mRZKiHWd1esKcMcwsu57-4" vertex="1">
                    <mxGeometry x="240" width="200" height="40" as="geometry"/>
                </mxCell>
                <mxCell id="mRZKiHWd1esKcMcwsu57-8" value="auth" style="shape=partialRectangle;html=1;whiteSpace=wrap;connectable=0;overflow=hidden;fillColor=#dae8fc;top=0;left=0;bottom=0;right=0;gradientColor=#7ea6e0;strokeColor=#6c8ebf;" parent="mRZKiHWd1esKcMcwsu57-4" vertex="1">
                    <mxGeometry x="440" width="80" height="40" as="geometry"/>
                </mxCell>
                <mxCell id="mRZKiHWd1esKcMcwsu57-9" value="admin" style="shape=partialRectangle;html=1;whiteSpace=wrap;connectable=0;overflow=hidden;fillColor=#dae8fc;top=0;left=0;bottom=0;right=0;gradientColor=#7ea6e0;strokeColor=#6c8ebf;" parent="mRZKiHWd1esKcMcwsu57-4" vertex="1">
                    <mxGeometry x="520" width="80" height="40" as="geometry"/>
                </mxCell>
                <mxCell id="mRZKiHWd1esKcMcwsu57-10" value="" style="shape=partialRectangle;collapsible=0;dropTarget=0;pointerEvents=0;fillColor=none;top=0;left=0;bottom=0;right=0;points=[[0,0.5],[1,0.5]];portConstraint=eastwest;" parent="mRZKiHWd1esKcMcwsu57-3" vertex="1">
                    <mxGeometry y="40" width="600" height="40" as="geometry"/>
                </mxCell>
                <mxCell id="mRZKiHWd1esKcMcwsu57-11" value="GET" style="shape=partialRectangle;html=1;whiteSpace=wrap;connectable=0;overflow=hidden;fillColor=none;top=0;left=0;bottom=0;right=0;" parent="mRZKiHWd1esKcMcwsu57-10" vertex="1">
                    <mxGeometry width="80" height="40" as="geometry"/>
                </mxCell>
                <mxCell id="mRZKiHWd1esKcMcwsu57-12" value="/login" style="shape=partialRectangle;html=1;whiteSpace=wrap;connectable=0;overflow=hidden;fillColor=none;top=0;left=0;bottom=0;right=0;align=left;spacingLeft=10;" parent="mRZKiHWd1esKcMcwsu57-10" vertex="1">
                    <mxGeometry x="80" width="160" height="40" as="geometry"/>
                </mxCell>
                <mxCell id="mRZKiHWd1esKcMcwsu57-13" value="ログイン画面表示" style="shape=partialRectangle;html=1;whiteSpace=wrap;connectable=0;overflow=hidden;fillColor=none;top=0;left=0;bottom=0;right=0;" parent="mRZKiHWd1esKcMcwsu57-10" vertex="1">
                    <mxGeometry x="240" width="200" height="40" as="geometry"/>
                </mxCell>
                <mxCell id="mRZKiHWd1esKcMcwsu57-14" value="" style="shape=partialRectangle;html=1;whiteSpace=wrap;connectable=0;overflow=hidden;fillColor=none;top=0;left=0;bottom=0;right=0;" parent="mRZKiHWd1esKcMcwsu57-10" vertex="1">
                    <mxGeometry x="440" width="80" height="40" as="geometry"/>
                </mxCell>
                <mxCell id="mRZKiHWd1esKcMcwsu57-15" value="" style="shape=partialRectangle;html=1;whiteSpace=wrap;connectable=0;overflow=hidden;fillColor=none;top=0;left=0;bottom=0;right=0;" parent="mRZKiHWd1esKcMcwsu57-10" vertex="1">
                    <mxGeometry x="520" width="80" height="40" as="geometry"/>
                </mxCell>
                <mxCell id="mRZKiHWd1esKcMcwsu57-64" style="shape=partialRectangle;collapsible=0;dropTarget=0;pointerEvents=0;fillColor=none;top=0;left=0;bottom=0;right=0;points=[[0,0.5],[1,0.5]];portConstraint=eastwest;" parent="mRZKiHWd1esKcMcwsu57-3" vertex="1">
                    <mxGeometry y="80" width="600" height="40" as="geometry"/>
                </mxCell>
                <mxCell id="mRZKiHWd1esKcMcwsu57-65" value="POST" style="shape=partialRectangle;html=1;whiteSpace=wrap;connectable=0;overflow=hidden;fillColor=none;top=0;left=0;bottom=0;right=0;" parent="mRZKiHWd1esKcMcwsu57-64" vertex="1">
                    <mxGeometry width="80" height="40" as="geometry"/>
                </mxCell>
                <mxCell id="mRZKiHWd1esKcMcwsu57-66" value="/login" style="shape=partialRectangle;html=1;whiteSpace=wrap;connectable=0;overflow=hidden;fillColor=none;top=0;left=0;bottom=0;right=0;align=left;spacingLeft=10;" parent="mRZKiHWd1esKcMcwsu57-64" vertex="1">
                    <mxGeometry x="80" width="160" height="40" as="geometry"/>
                </mxCell>
                <mxCell id="mRZKiHWd1esKcMcwsu57-67" value="ログイン処理" style="shape=partialRectangle;html=1;whiteSpace=wrap;connectable=0;overflow=hidden;fillColor=none;top=0;left=0;bottom=0;right=0;" parent="mRZKiHWd1esKcMcwsu57-64" vertex="1">
                    <mxGeometry x="240" width="200" height="40" as="geometry"/>
                </mxCell>
                <mxCell id="mRZKiHWd1esKcMcwsu57-68" style="shape=partialRectangle;html=1;whiteSpace=wrap;connectable=0;overflow=hidden;fillColor=none;top=0;left=0;bottom=0;right=0;" parent="mRZKiHWd1esKcMcwsu57-64" vertex="1">
                    <mxGeometry x="440" width="80" height="40" as="geometry"/>
                </mxCell>
                <mxCell id="mRZKiHWd1esKcMcwsu57-69" style="shape=partialRectangle;html=1;whiteSpace=wrap;connectable=0;overflow=hidden;fillColor=none;top=0;left=0;bottom=0;right=0;" parent="mRZKiHWd1esKcMcwsu57-64" vertex="1">
                    <mxGeometry x="520" width="80" height="40" as="geometry"/>
                </mxCell>
                <mxCell id="mRZKiHWd1esKcMcwsu57-70" style="shape=partialRectangle;collapsible=0;dropTarget=0;pointerEvents=0;fillColor=none;top=0;left=0;bottom=0;right=0;points=[[0,0.5],[1,0.5]];portConstraint=eastwest;" parent="mRZKiHWd1esKcMcwsu57-3" vertex="1">
                    <mxGeometry y="120" width="600" height="40" as="geometry"/>
                </mxCell>
                <mxCell id="mRZKiHWd1esKcMcwsu57-71" value="POST" style="shape=partialRectangle;html=1;whiteSpace=wrap;connectable=0;overflow=hidden;fillColor=none;top=0;left=0;bottom=0;right=0;" parent="mRZKiHWd1esKcMcwsu57-70" vertex="1">
                    <mxGeometry width="80" height="40" as="geometry"/>
                </mxCell>
                <mxCell id="mRZKiHWd1esKcMcwsu57-72" value="/logout" style="shape=partialRectangle;html=1;whiteSpace=wrap;connectable=0;overflow=hidden;fillColor=none;top=0;left=0;bottom=0;right=0;align=left;spacingLeft=10;" parent="mRZKiHWd1esKcMcwsu57-70" vertex="1">
                    <mxGeometry x="80" width="160" height="40" as="geometry"/>
                </mxCell>
                <mxCell id="mRZKiHWd1esKcMcwsu57-73" value="ログアウト処理" style="shape=partialRectangle;html=1;whiteSpace=wrap;connectable=0;overflow=hidden;fillColor=none;top=0;left=0;bottom=0;right=0;" parent="mRZKiHWd1esKcMcwsu57-70" vertex="1">
                    <mxGeometry x="240" width="200" height="40" as="geometry"/>
                </mxCell>
                <mxCell id="mRZKiHWd1esKcMcwsu57-74" value="✓" style="shape=partialRectangle;html=1;whiteSpace=wrap;connectable=0;overflow=hidden;fillColor=none;top=0;left=0;bottom=0;right=0;" parent="mRZKiHWd1esKcMcwsu57-70" vertex="1">
                    <mxGeometry x="440" width="80" height="40" as="geometry"/>
                </mxCell>
                <mxCell id="mRZKiHWd1esKcMcwsu57-75" style="shape=partialRectangle;html=1;whiteSpace=wrap;connectable=0;overflow=hidden;fillColor=none;top=0;left=0;bottom=0;right=0;" parent="mRZKiHWd1esKcMcwsu57-70" vertex="1">
                    <mxGeometry x="520" width="80" height="40" as="geometry"/>
                </mxCell>
                <mxCell id="mRZKiHWd1esKcMcwsu57-16" value="" style="shape=partialRectangle;collapsible=0;dropTarget=0;pointerEvents=0;fillColor=none;top=0;left=0;bottom=0;right=0;points=[[0,0.5],[1,0.5]];portConstraint=eastwest;" parent="mRZKiHWd1esKcMcwsu57-3" vertex="1">
                    <mxGeometry y="160" width="600" height="40" as="geometry"/>
                </mxCell>
                <mxCell id="mRZKiHWd1esKcMcwsu57-17" value="GET" style="shape=partialRectangle;html=1;whiteSpace=wrap;connectable=0;overflow=hidden;fillColor=none;top=0;left=0;bottom=0;right=0;" parent="mRZKiHWd1esKcMcwsu57-16" vertex="1">
                    <mxGeometry width="80" height="40" as="geometry"/>
                </mxCell>
                <mxCell id="mRZKiHWd1esKcMcwsu57-18" value="&lt;div&gt;/emp&lt;/div&gt;" style="shape=partialRectangle;html=1;whiteSpace=wrap;connectable=0;overflow=hidden;fillColor=none;top=0;left=0;bottom=0;right=0;align=left;spacingLeft=10;" parent="mRZKiHWd1esKcMcwsu57-16" vertex="1">
                    <mxGeometry x="80" width="160" height="40" as="geometry"/>
                </mxCell>
                <mxCell id="mRZKiHWd1esKcMcwsu57-19" value="従業員一覧表示" style="shape=partialRectangle;html=1;whiteSpace=wrap;connectable=0;overflow=hidden;fillColor=none;top=0;left=0;bottom=0;right=0;" parent="mRZKiHWd1esKcMcwsu57-16" vertex="1">
                    <mxGeometry x="240" width="200" height="40" as="geometry"/>
                </mxCell>
                <mxCell id="mRZKiHWd1esKcMcwsu57-20" value="✓" style="shape=partialRectangle;html=1;whiteSpace=wrap;connectable=0;overflow=hidden;fillColor=none;top=0;left=0;bottom=0;right=0;" parent="mRZKiHWd1esKcMcwsu57-16" vertex="1">
                    <mxGeometry x="440" width="80" height="40" as="geometry"/>
                </mxCell>
                <mxCell id="mRZKiHWd1esKcMcwsu57-21" value="" style="shape=partialRectangle;html=1;whiteSpace=wrap;connectable=0;overflow=hidden;fillColor=none;top=0;left=0;bottom=0;right=0;" parent="mRZKiHWd1esKcMcwsu57-16" vertex="1">
                    <mxGeometry x="520" width="80" height="40" as="geometry"/>
                </mxCell>
                <mxCell id="mRZKiHWd1esKcMcwsu57-22" value="" style="shape=partialRectangle;collapsible=0;dropTarget=0;pointerEvents=0;fillColor=none;top=0;left=0;bottom=0;right=0;points=[[0,0.5],[1,0.5]];portConstraint=eastwest;" parent="mRZKiHWd1esKcMcwsu57-3" vertex="1">
                    <mxGeometry y="200" width="600" height="40" as="geometry"/>
                </mxCell>
                <mxCell id="mRZKiHWd1esKcMcwsu57-23" value="GET" style="shape=partialRectangle;html=1;whiteSpace=wrap;connectable=0;overflow=hidden;fillColor=none;top=0;left=0;bottom=0;right=0;" parent="mRZKiHWd1esKcMcwsu57-22" vertex="1">
                    <mxGeometry width="80" height="40" as="geometry"/>
                </mxCell>
                <mxCell id="mRZKiHWd1esKcMcwsu57-24" value="/emp/{id}" style="shape=partialRectangle;html=1;whiteSpace=wrap;connectable=0;overflow=hidden;fillColor=none;top=0;left=0;bottom=0;right=0;align=left;spacingLeft=10;" parent="mRZKiHWd1esKcMcwsu57-22" vertex="1">
                    <mxGeometry x="80" width="160" height="40" as="geometry"/>
                </mxCell>
                <mxCell id="mRZKiHWd1esKcMcwsu57-25" value="従業員詳細（1件）表示" style="shape=partialRectangle;html=1;whiteSpace=wrap;connectable=0;overflow=hidden;fillColor=none;top=0;left=0;bottom=0;right=0;" parent="mRZKiHWd1esKcMcwsu57-22" vertex="1">
                    <mxGeometry x="240" width="200" height="40" as="geometry"/>
                </mxCell>
                <mxCell id="mRZKiHWd1esKcMcwsu57-26" value="✓" style="shape=partialRectangle;html=1;whiteSpace=wrap;connectable=0;overflow=hidden;fillColor=none;top=0;left=0;bottom=0;right=0;" parent="mRZKiHWd1esKcMcwsu57-22" vertex="1">
                    <mxGeometry x="440" width="80" height="40" as="geometry"/>
                </mxCell>
                <mxCell id="mRZKiHWd1esKcMcwsu57-27" value="" style="shape=partialRectangle;html=1;whiteSpace=wrap;connectable=0;overflow=hidden;fillColor=none;top=0;left=0;bottom=0;right=0;" parent="mRZKiHWd1esKcMcwsu57-22" vertex="1">
                    <mxGeometry x="520" width="80" height="40" as="geometry"/>
                </mxCell>
                <mxCell id="mRZKiHWd1esKcMcwsu57-28" value="" style="shape=partialRectangle;collapsible=0;dropTarget=0;pointerEvents=0;fillColor=none;top=0;left=0;bottom=0;right=0;points=[[0,0.5],[1,0.5]];portConstraint=eastwest;" parent="mRZKiHWd1esKcMcwsu57-3" vertex="1">
                    <mxGeometry y="240" width="600" height="40" as="geometry"/>
                </mxCell>
                <mxCell id="mRZKiHWd1esKcMcwsu57-29" value="GET" style="shape=partialRectangle;html=1;whiteSpace=wrap;connectable=0;overflow=hidden;fillColor=none;top=0;left=0;bottom=0;right=0;" parent="mRZKiHWd1esKcMcwsu57-28" vertex="1">
                    <mxGeometry width="80" height="40" as="geometry"/>
                </mxCell>
                <mxCell id="mRZKiHWd1esKcMcwsu57-30" value="/prof" style="shape=partialRectangle;html=1;whiteSpace=wrap;connectable=0;overflow=hidden;fillColor=none;top=0;left=0;bottom=0;right=0;align=left;spacingLeft=10;" parent="mRZKiHWd1esKcMcwsu57-28" vertex="1">
                    <mxGeometry x="80" width="160" height="40" as="geometry"/>
                </mxCell>
                <mxCell id="mRZKiHWd1esKcMcwsu57-31" value="ログインユーザー情報表示" style="shape=partialRectangle;html=1;whiteSpace=wrap;connectable=0;overflow=hidden;fillColor=none;top=0;left=0;bottom=0;right=0;" parent="mRZKiHWd1esKcMcwsu57-28" vertex="1">
                    <mxGeometry x="240" width="200" height="40" as="geometry"/>
                </mxCell>
                <mxCell id="mRZKiHWd1esKcMcwsu57-32" value="✓" style="shape=partialRectangle;html=1;whiteSpace=wrap;connectable=0;overflow=hidden;fillColor=none;top=0;left=0;bottom=0;right=0;" parent="mRZKiHWd1esKcMcwsu57-28" vertex="1">
                    <mxGeometry x="440" width="80" height="40" as="geometry"/>
                </mxCell>
                <mxCell id="mRZKiHWd1esKcMcwsu57-33" value="" style="shape=partialRectangle;html=1;whiteSpace=wrap;connectable=0;overflow=hidden;fillColor=none;top=0;left=0;bottom=0;right=0;" parent="mRZKiHWd1esKcMcwsu57-28" vertex="1">
                    <mxGeometry x="520" width="80" height="40" as="geometry"/>
                </mxCell>
                <mxCell id="mRZKiHWd1esKcMcwsu57-34" value="" style="shape=partialRectangle;collapsible=0;dropTarget=0;pointerEvents=0;fillColor=none;top=0;left=0;bottom=0;right=0;points=[[0,0.5],[1,0.5]];portConstraint=eastwest;" parent="mRZKiHWd1esKcMcwsu57-3" vertex="1">
                    <mxGeometry y="280" width="600" height="40" as="geometry"/>
                </mxCell>
                <mxCell id="mRZKiHWd1esKcMcwsu57-35" value="POST" style="shape=partialRectangle;html=1;whiteSpace=wrap;connectable=0;overflow=hidden;fillColor=none;top=0;left=0;bottom=0;right=0;" parent="mRZKiHWd1esKcMcwsu57-34" vertex="1">
                    <mxGeometry width="80" height="40" as="geometry"/>
                </mxCell>
                <mxCell id="mRZKiHWd1esKcMcwsu57-36" value="/prof" style="shape=partialRectangle;html=1;whiteSpace=wrap;connectable=0;overflow=hidden;fillColor=none;top=0;left=0;bottom=0;right=0;align=left;spacingLeft=10;" parent="mRZKiHWd1esKcMcwsu57-34" vertex="1">
                    <mxGeometry x="80" width="160" height="40" as="geometry"/>
                </mxCell>
                <mxCell id="mRZKiHWd1esKcMcwsu57-37" value="ログインユーザー情報更新" style="shape=partialRectangle;html=1;whiteSpace=wrap;connectable=0;overflow=hidden;fillColor=none;top=0;left=0;bottom=0;right=0;" parent="mRZKiHWd1esKcMcwsu57-34" vertex="1">
                    <mxGeometry x="240" width="200" height="40" as="geometry"/>
                </mxCell>
                <mxCell id="mRZKiHWd1esKcMcwsu57-38" value="✓" style="shape=partialRectangle;html=1;whiteSpace=wrap;connectable=0;overflow=hidden;fillColor=none;top=0;left=0;bottom=0;right=0;" parent="mRZKiHWd1esKcMcwsu57-34" vertex="1">
                    <mxGeometry x="440" width="80" height="40" as="geometry"/>
                </mxCell>
                <mxCell id="mRZKiHWd1esKcMcwsu57-39" value="" style="shape=partialRectangle;html=1;whiteSpace=wrap;connectable=0;overflow=hidden;fillColor=none;top=0;left=0;bottom=0;right=0;" parent="mRZKiHWd1esKcMcwsu57-34" vertex="1">
                    <mxGeometry x="520" width="80" height="40" as="geometry"/>
                </mxCell>
                <mxCell id="mRZKiHWd1esKcMcwsu57-40" value="" style="shape=partialRectangle;collapsible=0;dropTarget=0;pointerEvents=0;fillColor=none;top=0;left=0;bottom=0;right=0;points=[[0,0.5],[1,0.5]];portConstraint=eastwest;" parent="mRZKiHWd1esKcMcwsu57-3" vertex="1">
                    <mxGeometry y="320" width="600" height="40" as="geometry"/>
                </mxCell>
                <mxCell id="mRZKiHWd1esKcMcwsu57-41" value="GET" style="shape=partialRectangle;html=1;whiteSpace=wrap;connectable=0;overflow=hidden;fillColor=none;top=0;left=0;bottom=0;right=0;" parent="mRZKiHWd1esKcMcwsu57-40" vertex="1">
                    <mxGeometry width="80" height="40" as="geometry"/>
                </mxCell>
                <mxCell id="mRZKiHWd1esKcMcwsu57-42" value="/adm/groups" style="shape=partialRectangle;html=1;whiteSpace=wrap;connectable=0;overflow=hidden;fillColor=none;top=0;left=0;bottom=0;right=0;align=left;spacingLeft=10;" parent="mRZKiHWd1esKcMcwsu57-40" vertex="1">
                    <mxGeometry x="80" width="160" height="40" as="geometry"/>
                </mxCell>
                <mxCell id="mRZKiHWd1esKcMcwsu57-43" value="グループ一覧表示" style="shape=partialRectangle;html=1;whiteSpace=wrap;connectable=0;overflow=hidden;fillColor=none;top=0;left=0;bottom=0;right=0;" parent="mRZKiHWd1esKcMcwsu57-40" vertex="1">
                    <mxGeometry x="240" width="200" height="40" as="geometry"/>
                </mxCell>
                <mxCell id="mRZKiHWd1esKcMcwsu57-44" value="✓" style="shape=partialRectangle;html=1;whiteSpace=wrap;connectable=0;overflow=hidden;fillColor=none;top=0;left=0;bottom=0;right=0;" parent="mRZKiHWd1esKcMcwsu57-40" vertex="1">
                    <mxGeometry x="440" width="80" height="40" as="geometry"/>
                </mxCell>
                <mxCell id="mRZKiHWd1esKcMcwsu57-45" value="✓" style="shape=partialRectangle;html=1;whiteSpace=wrap;connectable=0;overflow=hidden;fillColor=none;top=0;left=0;bottom=0;right=0;" parent="mRZKiHWd1esKcMcwsu57-40" vertex="1">
                    <mxGeometry x="520" width="80" height="40" as="geometry"/>
                </mxCell>
                <mxCell id="aoln4A_-qoIrpOuDrq9M-12" style="shape=partialRectangle;collapsible=0;dropTarget=0;pointerEvents=0;fillColor=none;top=0;left=0;bottom=0;right=0;points=[[0,0.5],[1,0.5]];portConstraint=eastwest;" parent="mRZKiHWd1esKcMcwsu57-3" vertex="1">
                    <mxGeometry y="360" width="600" height="40" as="geometry"/>
                </mxCell>
                <mxCell id="aoln4A_-qoIrpOuDrq9M-13" value="GET" style="shape=partialRectangle;html=1;whiteSpace=wrap;connectable=0;overflow=hidden;fillColor=none;top=0;left=0;bottom=0;right=0;" parent="aoln4A_-qoIrpOuDrq9M-12" vertex="1">
                    <mxGeometry width="80" height="40" as="geometry"/>
                </mxCell>
                <mxCell id="aoln4A_-qoIrpOuDrq9M-14" value="/adm/groups/new" style="shape=partialRectangle;html=1;whiteSpace=wrap;connectable=0;overflow=hidden;fillColor=none;top=0;left=0;bottom=0;right=0;align=left;spacingLeft=10;" parent="aoln4A_-qoIrpOuDrq9M-12" vertex="1">
                    <mxGeometry x="80" width="160" height="40" as="geometry"/>
                </mxCell>
                <mxCell id="aoln4A_-qoIrpOuDrq9M-15" value="グループ登録画面表示" style="shape=partialRectangle;html=1;whiteSpace=wrap;connectable=0;overflow=hidden;fillColor=none;top=0;left=0;bottom=0;right=0;" parent="aoln4A_-qoIrpOuDrq9M-12" vertex="1">
                    <mxGeometry x="240" width="200" height="40" as="geometry"/>
                </mxCell>
                <mxCell id="aoln4A_-qoIrpOuDrq9M-16" value="✓" style="shape=partialRectangle;html=1;whiteSpace=wrap;connectable=0;overflow=hidden;fillColor=none;top=0;left=0;bottom=0;right=0;" parent="aoln4A_-qoIrpOuDrq9M-12" vertex="1">
                    <mxGeometry x="440" width="80" height="40" as="geometry"/>
                </mxCell>
                <mxCell id="aoln4A_-qoIrpOuDrq9M-17" value="✓" style="shape=partialRectangle;html=1;whiteSpace=wrap;connectable=0;overflow=hidden;fillColor=none;top=0;left=0;bottom=0;right=0;" parent="aoln4A_-qoIrpOuDrq9M-12" vertex="1">
                    <mxGeometry x="520" width="80" height="40" as="geometry"/>
                </mxCell>
                <mxCell id="aoln4A_-qoIrpOuDrq9M-18" style="shape=partialRectangle;collapsible=0;dropTarget=0;pointerEvents=0;fillColor=none;top=0;left=0;bottom=0;right=0;points=[[0,0.5],[1,0.5]];portConstraint=eastwest;" parent="mRZKiHWd1esKcMcwsu57-3" vertex="1">
                    <mxGeometry y="400" width="600" height="40" as="geometry"/>
                </mxCell>
                <mxCell id="aoln4A_-qoIrpOuDrq9M-19" value="POST" style="shape=partialRectangle;html=1;whiteSpace=wrap;connectable=0;overflow=hidden;fillColor=none;top=0;left=0;bottom=0;right=0;" parent="aoln4A_-qoIrpOuDrq9M-18" vertex="1">
                    <mxGeometry width="80" height="40" as="geometry"/>
                </mxCell>
                <mxCell id="aoln4A_-qoIrpOuDrq9M-20" value="/adm/groups" style="shape=partialRectangle;html=1;whiteSpace=wrap;connectable=0;overflow=hidden;fillColor=none;top=0;left=0;bottom=0;right=0;align=left;spacingLeft=10;" parent="aoln4A_-qoIrpOuDrq9M-18" vertex="1">
                    <mxGeometry x="80" width="160" height="40" as="geometry"/>
                </mxCell>
                <mxCell id="aoln4A_-qoIrpOuDrq9M-21" value="グループ登録処理" style="shape=partialRectangle;html=1;whiteSpace=wrap;connectable=0;overflow=hidden;fillColor=none;top=0;left=0;bottom=0;right=0;" parent="aoln4A_-qoIrpOuDrq9M-18" vertex="1">
                    <mxGeometry x="240" width="200" height="40" as="geometry"/>
                </mxCell>
                <mxCell id="aoln4A_-qoIrpOuDrq9M-22" value="✓" style="shape=partialRectangle;html=1;whiteSpace=wrap;connectable=0;overflow=hidden;fillColor=none;top=0;left=0;bottom=0;right=0;" parent="aoln4A_-qoIrpOuDrq9M-18" vertex="1">
                    <mxGeometry x="440" width="80" height="40" as="geometry"/>
                </mxCell>
                <mxCell id="aoln4A_-qoIrpOuDrq9M-23" value="✓" style="shape=partialRectangle;html=1;whiteSpace=wrap;connectable=0;overflow=hidden;fillColor=none;top=0;left=0;bottom=0;right=0;" parent="aoln4A_-qoIrpOuDrq9M-18" vertex="1">
                    <mxGeometry x="520" width="80" height="40" as="geometry"/>
                </mxCell>
                <mxCell id="mRZKiHWd1esKcMcwsu57-46" value="" style="shape=partialRectangle;collapsible=0;dropTarget=0;pointerEvents=0;fillColor=none;top=0;left=0;bottom=0;right=0;points=[[0,0.5],[1,0.5]];portConstraint=eastwest;" parent="mRZKiHWd1esKcMcwsu57-3" vertex="1">
                    <mxGeometry y="440" width="600" height="40" as="geometry"/>
                </mxCell>
                <mxCell id="mRZKiHWd1esKcMcwsu57-47" value="GET" style="shape=partialRectangle;html=1;whiteSpace=wrap;connectable=0;overflow=hidden;fillColor=none;top=0;left=0;bottom=0;right=0;" parent="mRZKiHWd1esKcMcwsu57-46" vertex="1">
                    <mxGeometry width="80" height="40" as="geometry"/>
                </mxCell>
                <mxCell id="mRZKiHWd1esKcMcwsu57-48" value="/adm/groups/{id}" style="shape=partialRectangle;html=1;whiteSpace=wrap;connectable=0;overflow=hidden;fillColor=none;top=0;left=0;bottom=0;right=0;align=left;spacingLeft=10;" parent="mRZKiHWd1esKcMcwsu57-46" vertex="1">
                    <mxGeometry x="80" width="160" height="40" as="geometry"/>
                </mxCell>
                <mxCell id="mRZKiHWd1esKcMcwsu57-49" value="グループ1件表示" style="shape=partialRectangle;html=1;whiteSpace=wrap;connectable=0;overflow=hidden;fillColor=none;top=0;left=0;bottom=0;right=0;" parent="mRZKiHWd1esKcMcwsu57-46" vertex="1">
                    <mxGeometry x="240" width="200" height="40" as="geometry"/>
                </mxCell>
                <mxCell id="mRZKiHWd1esKcMcwsu57-50" value="✓" style="shape=partialRectangle;html=1;whiteSpace=wrap;connectable=0;overflow=hidden;fillColor=none;top=0;left=0;bottom=0;right=0;" parent="mRZKiHWd1esKcMcwsu57-46" vertex="1">
                    <mxGeometry x="440" width="80" height="40" as="geometry"/>
                </mxCell>
                <mxCell id="mRZKiHWd1esKcMcwsu57-51" value="✓" style="shape=partialRectangle;html=1;whiteSpace=wrap;connectable=0;overflow=hidden;fillColor=none;top=0;left=0;bottom=0;right=0;" parent="mRZKiHWd1esKcMcwsu57-46" vertex="1">
                    <mxGeometry x="520" width="80" height="40" as="geometry"/>
                </mxCell>
                <mxCell id="mRZKiHWd1esKcMcwsu57-52" value="" style="shape=partialRectangle;collapsible=0;dropTarget=0;pointerEvents=0;fillColor=none;top=0;left=0;bottom=0;right=0;points=[[0,0.5],[1,0.5]];portConstraint=eastwest;" parent="mRZKiHWd1esKcMcwsu57-3" vertex="1">
                    <mxGeometry y="480" width="600" height="40" as="geometry"/>
                </mxCell>
                <mxCell id="mRZKiHWd1esKcMcwsu57-53" value="PATCH" style="shape=partialRectangle;html=1;whiteSpace=wrap;connectable=0;overflow=hidden;fillColor=none;top=0;left=0;bottom=0;right=0;" parent="mRZKiHWd1esKcMcwsu57-52" vertex="1">
                    <mxGeometry width="80" height="40" as="geometry"/>
                </mxCell>
                <mxCell id="mRZKiHWd1esKcMcwsu57-54" value="/adm/groups/{id}" style="shape=partialRectangle;html=1;whiteSpace=wrap;connectable=0;overflow=hidden;fillColor=none;top=0;left=0;bottom=0;right=0;align=left;spacingLeft=10;" parent="mRZKiHWd1esKcMcwsu57-52" vertex="1">
                    <mxGeometry x="80" width="160" height="40" as="geometry"/>
                </mxCell>
                <mxCell id="mRZKiHWd1esKcMcwsu57-55" value="グループ1件更新処理" style="shape=partialRectangle;html=1;whiteSpace=wrap;connectable=0;overflow=hidden;fillColor=none;top=0;left=0;bottom=0;right=0;" parent="mRZKiHWd1esKcMcwsu57-52" vertex="1">
                    <mxGeometry x="240" width="200" height="40" as="geometry"/>
                </mxCell>
                <mxCell id="mRZKiHWd1esKcMcwsu57-56" value="✓" style="shape=partialRectangle;html=1;whiteSpace=wrap;connectable=0;overflow=hidden;fillColor=none;top=0;left=0;bottom=0;right=0;" parent="mRZKiHWd1esKcMcwsu57-52" vertex="1">
                    <mxGeometry x="440" width="80" height="40" as="geometry"/>
                </mxCell>
                <mxCell id="mRZKiHWd1esKcMcwsu57-57" value="✓" style="shape=partialRectangle;html=1;whiteSpace=wrap;connectable=0;overflow=hidden;fillColor=none;top=0;left=0;bottom=0;right=0;" parent="mRZKiHWd1esKcMcwsu57-52" vertex="1">
                    <mxGeometry x="520" width="80" height="40" as="geometry"/>
                </mxCell>
                <mxCell id="aoln4A_-qoIrpOuDrq9M-6" style="shape=partialRectangle;collapsible=0;dropTarget=0;pointerEvents=0;fillColor=none;top=0;left=0;bottom=0;right=0;points=[[0,0.5],[1,0.5]];portConstraint=eastwest;" parent="mRZKiHWd1esKcMcwsu57-3" vertex="1">
                    <mxGeometry y="520" width="600" height="40" as="geometry"/>
                </mxCell>
                <mxCell id="aoln4A_-qoIrpOuDrq9M-7" value="DELETE" style="shape=partialRectangle;html=1;whiteSpace=wrap;connectable=0;overflow=hidden;fillColor=none;top=0;left=0;bottom=0;right=0;" parent="aoln4A_-qoIrpOuDrq9M-6" vertex="1">
                    <mxGeometry width="80" height="40" as="geometry"/>
                </mxCell>
                <mxCell id="aoln4A_-qoIrpOuDrq9M-8" value="/adm/groups/{id}" style="shape=partialRectangle;html=1;whiteSpace=wrap;connectable=0;overflow=hidden;fillColor=none;top=0;left=0;bottom=0;right=0;align=left;spacingLeft=10;" parent="aoln4A_-qoIrpOuDrq9M-6" vertex="1">
                    <mxGeometry x="80" width="160" height="40" as="geometry"/>
                </mxCell>
                <mxCell id="aoln4A_-qoIrpOuDrq9M-9" value="グループ1件削除処理" style="shape=partialRectangle;html=1;whiteSpace=wrap;connectable=0;overflow=hidden;fillColor=none;top=0;left=0;bottom=0;right=0;" parent="aoln4A_-qoIrpOuDrq9M-6" vertex="1">
                    <mxGeometry x="240" width="200" height="40" as="geometry"/>
                </mxCell>
                <mxCell id="aoln4A_-qoIrpOuDrq9M-10" value="✓" style="shape=partialRectangle;html=1;whiteSpace=wrap;connectable=0;overflow=hidden;fillColor=none;top=0;left=0;bottom=0;right=0;" parent="aoln4A_-qoIrpOuDrq9M-6" vertex="1">
                    <mxGeometry x="440" width="80" height="40" as="geometry"/>
                </mxCell>
                <mxCell id="aoln4A_-qoIrpOuDrq9M-11" value="✓" style="shape=partialRectangle;html=1;whiteSpace=wrap;connectable=0;overflow=hidden;fillColor=none;top=0;left=0;bottom=0;right=0;" parent="aoln4A_-qoIrpOuDrq9M-6" vertex="1">
                    <mxGeometry x="520" width="80" height="40" as="geometry"/>
                </mxCell>
                <mxCell id="aoln4A_-qoIrpOuDrq9M-0" style="shape=partialRectangle;collapsible=0;dropTarget=0;pointerEvents=0;fillColor=none;top=0;left=0;bottom=0;right=0;points=[[0,0.5],[1,0.5]];portConstraint=eastwest;" parent="mRZKiHWd1esKcMcwsu57-3" vertex="1">
                    <mxGeometry y="560" width="600" height="40" as="geometry"/>
                </mxCell>
                <mxCell id="aoln4A_-qoIrpOuDrq9M-1" style="shape=partialRectangle;html=1;whiteSpace=wrap;connectable=0;overflow=hidden;fillColor=none;top=0;left=0;bottom=0;right=0;" parent="aoln4A_-qoIrpOuDrq9M-0" vertex="1">
                    <mxGeometry width="80" height="40" as="geometry"/>
                </mxCell>
                <mxCell id="aoln4A_-qoIrpOuDrq9M-2" style="shape=partialRectangle;html=1;whiteSpace=wrap;connectable=0;overflow=hidden;fillColor=none;top=0;left=0;bottom=0;right=0;align=left;spacingLeft=10;" parent="aoln4A_-qoIrpOuDrq9M-0" vertex="1">
                    <mxGeometry x="80" width="160" height="40" as="geometry"/>
                </mxCell>
                <mxCell id="aoln4A_-qoIrpOuDrq9M-3" value="（従業員一覧画面は共用）" style="shape=partialRectangle;html=1;whiteSpace=wrap;connectable=0;overflow=hidden;fillColor=none;top=0;left=0;bottom=0;right=0;" parent="aoln4A_-qoIrpOuDrq9M-0" vertex="1">
                    <mxGeometry x="240" width="200" height="40" as="geometry"/>
                </mxCell>
                <mxCell id="aoln4A_-qoIrpOuDrq9M-4" style="shape=partialRectangle;html=1;whiteSpace=wrap;connectable=0;overflow=hidden;fillColor=none;top=0;left=0;bottom=0;right=0;" parent="aoln4A_-qoIrpOuDrq9M-0" vertex="1">
                    <mxGeometry x="440" width="80" height="40" as="geometry"/>
                </mxCell>
                <mxCell id="aoln4A_-qoIrpOuDrq9M-5" style="shape=partialRectangle;html=1;whiteSpace=wrap;connectable=0;overflow=hidden;fillColor=none;top=0;left=0;bottom=0;right=0;" parent="aoln4A_-qoIrpOuDrq9M-0" vertex="1">
                    <mxGeometry x="520" width="80" height="40" as="geometry"/>
                </mxCell>
                <mxCell id="mRZKiHWd1esKcMcwsu57-58" value="" style="shape=partialRectangle;collapsible=0;dropTarget=0;pointerEvents=0;fillColor=none;top=0;left=0;bottom=0;right=0;points=[[0,0.5],[1,0.5]];portConstraint=eastwest;" parent="mRZKiHWd1esKcMcwsu57-3" vertex="1">
                    <mxGeometry y="600" width="600" height="40" as="geometry"/>
                </mxCell>
                <mxCell id="mRZKiHWd1esKcMcwsu57-59" value="GET" style="shape=partialRectangle;html=1;whiteSpace=wrap;connectable=0;overflow=hidden;fillColor=none;top=0;left=0;bottom=0;right=0;" parent="mRZKiHWd1esKcMcwsu57-58" vertex="1">
                    <mxGeometry width="80" height="40" as="geometry"/>
                </mxCell>
                <mxCell id="mRZKiHWd1esKcMcwsu57-60" value="/adm/emp/new" style="shape=partialRectangle;html=1;whiteSpace=wrap;connectable=0;overflow=hidden;fillColor=none;top=0;left=0;bottom=0;right=0;align=left;spacingLeft=10;" parent="mRZKiHWd1esKcMcwsu57-58" vertex="1">
                    <mxGeometry x="80" width="160" height="40" as="geometry"/>
                </mxCell>
                <mxCell id="mRZKiHWd1esKcMcwsu57-61" value="従業員登録画面表示" style="shape=partialRectangle;html=1;whiteSpace=wrap;connectable=0;overflow=hidden;fillColor=none;top=0;left=0;bottom=0;right=0;" parent="mRZKiHWd1esKcMcwsu57-58" vertex="1">
                    <mxGeometry x="240" width="200" height="40" as="geometry"/>
                </mxCell>
                <mxCell id="mRZKiHWd1esKcMcwsu57-62" value="✓" style="shape=partialRectangle;html=1;whiteSpace=wrap;connectable=0;overflow=hidden;fillColor=none;top=0;left=0;bottom=0;right=0;" parent="mRZKiHWd1esKcMcwsu57-58" vertex="1">
                    <mxGeometry x="440" width="80" height="40" as="geometry"/>
                </mxCell>
                <mxCell id="mRZKiHWd1esKcMcwsu57-63" value="✓" style="shape=partialRectangle;html=1;whiteSpace=wrap;connectable=0;overflow=hidden;fillColor=none;top=0;left=0;bottom=0;right=0;" parent="mRZKiHWd1esKcMcwsu57-58" vertex="1">
                    <mxGeometry x="520" width="80" height="40" as="geometry"/>
                </mxCell>
                <mxCell id="sExiA1PCJHkyBDhkYAGF-0" style="shape=partialRectangle;collapsible=0;dropTarget=0;pointerEvents=0;fillColor=none;top=0;left=0;bottom=0;right=0;points=[[0,0.5],[1,0.5]];portConstraint=eastwest;" parent="mRZKiHWd1esKcMcwsu57-3" vertex="1">
                    <mxGeometry y="640" width="600" height="40" as="geometry"/>
                </mxCell>
                <mxCell id="sExiA1PCJHkyBDhkYAGF-1" value="POST" style="shape=partialRectangle;html=1;whiteSpace=wrap;connectable=0;overflow=hidden;fillColor=none;top=0;left=0;bottom=0;right=0;" parent="sExiA1PCJHkyBDhkYAGF-0" vertex="1">
                    <mxGeometry width="80" height="40" as="geometry"/>
                </mxCell>
                <mxCell id="sExiA1PCJHkyBDhkYAGF-2" value="/adm/emp" style="shape=partialRectangle;html=1;whiteSpace=wrap;connectable=0;overflow=hidden;fillColor=none;top=0;left=0;bottom=0;right=0;align=left;spacingLeft=10;" parent="sExiA1PCJHkyBDhkYAGF-0" vertex="1">
                    <mxGeometry x="80" width="160" height="40" as="geometry"/>
                </mxCell>
                <mxCell id="sExiA1PCJHkyBDhkYAGF-3" value="従業員登録処理" style="shape=partialRectangle;html=1;whiteSpace=wrap;connectable=0;overflow=hidden;fillColor=none;top=0;left=0;bottom=0;right=0;" parent="sExiA1PCJHkyBDhkYAGF-0" vertex="1">
                    <mxGeometry x="240" width="200" height="40" as="geometry"/>
                </mxCell>
                <mxCell id="sExiA1PCJHkyBDhkYAGF-4" value="✓" style="shape=partialRectangle;html=1;whiteSpace=wrap;connectable=0;overflow=hidden;fillColor=none;top=0;left=0;bottom=0;right=0;" parent="sExiA1PCJHkyBDhkYAGF-0" vertex="1">
                    <mxGeometry x="440" width="80" height="40" as="geometry"/>
                </mxCell>
                <mxCell id="sExiA1PCJHkyBDhkYAGF-5" value="✓" style="shape=partialRectangle;html=1;whiteSpace=wrap;connectable=0;overflow=hidden;fillColor=none;top=0;left=0;bottom=0;right=0;" parent="sExiA1PCJHkyBDhkYAGF-0" vertex="1">
                    <mxGeometry x="520" width="80" height="40" as="geometry"/>
                </mxCell>
                <mxCell id="sExiA1PCJHkyBDhkYAGF-6" style="shape=partialRectangle;collapsible=0;dropTarget=0;pointerEvents=0;fillColor=none;top=0;left=0;bottom=0;right=0;points=[[0,0.5],[1,0.5]];portConstraint=eastwest;" parent="mRZKiHWd1esKcMcwsu57-3" vertex="1">
                    <mxGeometry y="680" width="600" height="40" as="geometry"/>
                </mxCell>
                <mxCell id="sExiA1PCJHkyBDhkYAGF-7" value="GET" style="shape=partialRectangle;html=1;whiteSpace=wrap;connectable=0;overflow=hidden;fillColor=none;top=0;left=0;bottom=0;right=0;" parent="sExiA1PCJHkyBDhkYAGF-6" vertex="1">
                    <mxGeometry width="80" height="40" as="geometry"/>
                </mxCell>
                <mxCell id="sExiA1PCJHkyBDhkYAGF-8" value="/adm/emp/{id}" style="shape=partialRectangle;html=1;whiteSpace=wrap;connectable=0;overflow=hidden;fillColor=none;top=0;left=0;bottom=0;right=0;align=left;spacingLeft=10;" parent="sExiA1PCJHkyBDhkYAGF-6" vertex="1">
                    <mxGeometry x="80" width="160" height="40" as="geometry"/>
                </mxCell>
                <mxCell id="sExiA1PCJHkyBDhkYAGF-9" value="従業員1件表示" style="shape=partialRectangle;html=1;whiteSpace=wrap;connectable=0;overflow=hidden;fillColor=none;top=0;left=0;bottom=0;right=0;" parent="sExiA1PCJHkyBDhkYAGF-6" vertex="1">
                    <mxGeometry x="240" width="200" height="40" as="geometry"/>
                </mxCell>
                <mxCell id="sExiA1PCJHkyBDhkYAGF-10" value="✓" style="shape=partialRectangle;html=1;whiteSpace=wrap;connectable=0;overflow=hidden;fillColor=none;top=0;left=0;bottom=0;right=0;" parent="sExiA1PCJHkyBDhkYAGF-6" vertex="1">
                    <mxGeometry x="440" width="80" height="40" as="geometry"/>
                </mxCell>
                <mxCell id="sExiA1PCJHkyBDhkYAGF-11" value="✓" style="shape=partialRectangle;html=1;whiteSpace=wrap;connectable=0;overflow=hidden;fillColor=none;top=0;left=0;bottom=0;right=0;" parent="sExiA1PCJHkyBDhkYAGF-6" vertex="1">
                    <mxGeometry x="520" width="80" height="40" as="geometry"/>
                </mxCell>
                <mxCell id="sExiA1PCJHkyBDhkYAGF-12" style="shape=partialRectangle;collapsible=0;dropTarget=0;pointerEvents=0;fillColor=none;top=0;left=0;bottom=0;right=0;points=[[0,0.5],[1,0.5]];portConstraint=eastwest;" parent="mRZKiHWd1esKcMcwsu57-3" vertex="1">
                    <mxGeometry y="720" width="600" height="40" as="geometry"/>
                </mxCell>
                <mxCell id="sExiA1PCJHkyBDhkYAGF-13" value="PATCH" style="shape=partialRectangle;html=1;whiteSpace=wrap;connectable=0;overflow=hidden;fillColor=none;top=0;left=0;bottom=0;right=0;" parent="sExiA1PCJHkyBDhkYAGF-12" vertex="1">
                    <mxGeometry width="80" height="40" as="geometry"/>
                </mxCell>
                <mxCell id="sExiA1PCJHkyBDhkYAGF-14" value="/adm/emp/{id}" style="shape=partialRectangle;html=1;whiteSpace=wrap;connectable=0;overflow=hidden;fillColor=none;top=0;left=0;bottom=0;right=0;align=left;spacingLeft=10;" parent="sExiA1PCJHkyBDhkYAGF-12" vertex="1">
                    <mxGeometry x="80" width="160" height="40" as="geometry"/>
                </mxCell>
                <mxCell id="sExiA1PCJHkyBDhkYAGF-15" value="従業員1件更新処理" style="shape=partialRectangle;html=1;whiteSpace=wrap;connectable=0;overflow=hidden;fillColor=none;top=0;left=0;bottom=0;right=0;" parent="sExiA1PCJHkyBDhkYAGF-12" vertex="1">
                    <mxGeometry x="240" width="200" height="40" as="geometry"/>
                </mxCell>
                <mxCell id="sExiA1PCJHkyBDhkYAGF-16" value="✓" style="shape=partialRectangle;html=1;whiteSpace=wrap;connectable=0;overflow=hidden;fillColor=none;top=0;left=0;bottom=0;right=0;" parent="sExiA1PCJHkyBDhkYAGF-12" vertex="1">
                    <mxGeometry x="440" width="80" height="40" as="geometry"/>
                </mxCell>
                <mxCell id="sExiA1PCJHkyBDhkYAGF-17" value="✓" style="shape=partialRectangle;html=1;whiteSpace=wrap;connectable=0;overflow=hidden;fillColor=none;top=0;left=0;bottom=0;right=0;" parent="sExiA1PCJHkyBDhkYAGF-12" vertex="1">
                    <mxGeometry x="520" width="80" height="40" as="geometry"/>
                </mxCell>
                <mxCell id="sExiA1PCJHkyBDhkYAGF-18" style="shape=partialRectangle;collapsible=0;dropTarget=0;pointerEvents=0;fillColor=none;top=0;left=0;bottom=0;right=0;points=[[0,0.5],[1,0.5]];portConstraint=eastwest;" parent="mRZKiHWd1esKcMcwsu57-3" vertex="1">
                    <mxGeometry y="760" width="600" height="40" as="geometry"/>
                </mxCell>
                <mxCell id="sExiA1PCJHkyBDhkYAGF-19" value="DELETE" style="shape=partialRectangle;html=1;whiteSpace=wrap;connectable=0;overflow=hidden;fillColor=none;top=0;left=0;bottom=0;right=0;" parent="sExiA1PCJHkyBDhkYAGF-18" vertex="1">
                    <mxGeometry width="80" height="40" as="geometry"/>
                </mxCell>
                <mxCell id="sExiA1PCJHkyBDhkYAGF-20" value="/adm/emp/{id}" style="shape=partialRectangle;html=1;whiteSpace=wrap;connectable=0;overflow=hidden;fillColor=none;top=0;left=0;bottom=0;right=0;align=left;spacingLeft=10;" parent="sExiA1PCJHkyBDhkYAGF-18" vertex="1">
                    <mxGeometry x="80" width="160" height="40" as="geometry"/>
                </mxCell>
                <mxCell id="sExiA1PCJHkyBDhkYAGF-21" value="従業員1件削除処理" style="shape=partialRectangle;html=1;whiteSpace=wrap;connectable=0;overflow=hidden;fillColor=none;top=0;left=0;bottom=0;right=0;" parent="sExiA1PCJHkyBDhkYAGF-18" vertex="1">
                    <mxGeometry x="240" width="200" height="40" as="geometry"/>
                </mxCell>
                <mxCell id="sExiA1PCJHkyBDhkYAGF-22" value="✓" style="shape=partialRectangle;html=1;whiteSpace=wrap;connectable=0;overflow=hidden;fillColor=none;top=0;left=0;bottom=0;right=0;" parent="sExiA1PCJHkyBDhkYAGF-18" vertex="1">
                    <mxGeometry x="440" width="80" height="40" as="geometry"/>
                </mxCell>
                <mxCell id="sExiA1PCJHkyBDhkYAGF-23" value="✓" style="shape=partialRectangle;html=1;whiteSpace=wrap;connectable=0;overflow=hidden;fillColor=none;top=0;left=0;bottom=0;right=0;" parent="sExiA1PCJHkyBDhkYAGF-18" vertex="1">
                    <mxGeometry x="520" width="80" height="40" as="geometry"/>
                </mxCell>
            </root>
        </mxGraphModel>
    </diagram>
</mxfile>